<?xml version="1.0" encoding="UTF-8" standalone="no"?>
<!-- Created with Inkscape (http://www.inkscape.org/) -->

<svg
   xmlns:dc="http://purl.org/dc/elements/1.1/"
   xmlns:cc="http://creativecommons.org/ns#"
   xmlns:rdf="http://www.w3.org/1999/02/22-rdf-syntax-ns#"
   xmlns:svg="http://www.w3.org/2000/svg"
   xmlns="http://www.w3.org/2000/svg"
   xmlns:sodipodi="http://sodipodi.sourceforge.net/DTD/sodipodi-0.dtd"
   xmlns:inkscape="http://www.inkscape.org/namespaces/inkscape"
   width="168.01828"
   height="168.64729"
   viewBox="0 0 168.01828 168.64727"
   id="svg2"
   version="1.1"
   inkscape:version="0.91 r13725"
   sodipodi:docname="bowl.svg">
  <defs
     id="defs4" />
  <sodipodi:namedview
     id="base"
     pagecolor="#ffffff"
     bordercolor="#666666"
     borderopacity="1.0"
     inkscape:pageopacity="0.0"
     inkscape:pageshadow="2"
     inkscape:zoom="2.1269742"
     inkscape:cx="260.0269"
     inkscape:cy="10.045604"
     inkscape:document-units="px"
     inkscape:current-layer="layer1"
     showgrid="false"
     units="px"
     inkscape:window-width="1920"
     inkscape:window-height="983"
     inkscape:window-x="0"
     inkscape:window-y="27"
     inkscape:window-maximized="1"
     fit-margin-top="20.8"
     fit-margin-left="10.8"
     fit-margin-right="10.8"
     fit-margin-bottom="20.8"
     inkscape:showpageshadow="false"
     borderlayer="false"
     showborder="true" />
  <metadata
     id="metadata7">
    <rdf:RDF>
      <cc:Work
         rdf:about="">
        <dc:format>image/svg+xml</dc:format>
        <dc:type
           rdf:resource="http://purl.org/dc/dcmitype/StillImage" />
        <dc:title></dc:title>
      </cc:Work>
    </rdf:RDF>
  </metadata>
  <g
     inkscape:label="Layer 1"
     inkscape:groupmode="layer"
     id="layer1"
     transform="translate(-0.1408361,-684.14423)">
    <ellipse
       style="fill:#ffffff;stroke:#000000;stroke-width:0.89169288"
       id="path3338"
       cx="85.7584"
       cy="777.46716"
       rx="72.703026"
       ry="9.3986931" />
    <path
       style="fill:#000000;stroke:#000000;stroke-width:0.17087965"
       d="m 79.356472,806.33371 c -28.405935,-1.67203 -49.695907,-9.08 -61.513413,-21.40394 -1.374106,-1.43301 -4.819424,-5.88612 -4.819424,-6.22921 0,-0.0834 0.484653,0.0608 1.077007,0.32067 5.950258,2.60996 17.177756,4.41271 37.417041,6.00784 15.993359,1.26047 44.903002,1.39117 63.856617,0.28865 19.96547,-1.16135 35.27504,-3.39661 41.78925,-6.1014 0.6568,-0.27273 1.21442,-0.46958 1.23918,-0.43748 0.0247,0.0321 -0.41272,0.732 -0.97219,1.55526 -9.0528,13.32155 -29.06226,22.29249 -56.23827,25.21356 -7.206496,0.77461 -16.404799,1.10572 -21.835798,0.78605 z"
       id="path3375"
       inkscape:connector-curvature="0" />
  </g>
</svg>
